<svg width="22" height="22" viewBox="0 0 22 22" fill="none" xmlns="http://www.w3.org/2000/svg">
<path d="M12.5757 20.191L11.4917 21.2456C11.0327 21.6921 10.2905 21.6921 9.83643 21.2456L0.344238 12.0153C-0.114746 11.5688 -0.114746 10.8467 0.344238 10.4049L9.83643 1.16987C10.2954 0.723324 11.0376 0.723324 11.4917 1.16987L12.5757 2.22449C13.0395 2.67579 13.0298 3.41212 12.5562 3.85392L6.67236 9.30751H20.7056C21.355 9.30751 21.8774 9.81582 21.8774 10.4476V11.9678C21.8774 12.5996 21.355 13.1079 20.7056 13.1079H6.67236L12.5562 18.5615C13.0347 19.0033 13.0444 19.7397 12.5757 20.191Z" fill="black"/>
</svg>
