<svg width="150" height="150" viewBox="0 0 150 150" fill="none" xmlns="http://www.w3.org/2000/svg">
<path d="M149.878 112.43C149.878 116.703 146.382 120.199 142.109 120.199H12.457C8.18379 120.199 4.6875 116.703 4.6875 112.43V35.8945C4.6875 31.6213 8.18379 28.125 12.457 28.125H142.109C146.382 28.125 149.878 31.6213 149.878 35.8945V112.43Z" fill="#61B8CC"/>
<path d="M147.595 42.6258H2.40466V51.82H147.595V42.6258Z" fill="#333E48"/>
<path d="M135.407 78.4963C135.407 80.2058 134.009 81.6044 132.299 81.6044H115.595C113.886 81.6044 112.487 80.2058 112.487 78.4963V68.3959C112.487 66.6867 113.886 65.2884 115.595 65.2884H132.299C134.009 65.2884 135.407 66.6867 135.407 68.3959V78.4963Z" fill="#FED771"/>
<path d="M123.946 79.4162C128.662 79.4162 132.484 76.7434 132.484 73.4464C132.484 70.1493 128.662 67.4766 123.946 67.4766C119.231 67.4766 115.408 70.1493 115.408 73.4464C115.408 76.7434 119.231 79.4162 123.946 79.4162Z" fill="#E5AB46"/>
<path d="M67.2311 65.1586H14.0092V81.7368H67.2311V65.1586Z" fill="#99DAEA"/>
<path d="M52.8955 95.0874C50.8283 95.0874 49.4139 96.4878 49.4139 98.3156V98.3423C49.4139 100.143 50.7346 101.304 52.7221 101.304C53.7229 101.304 54.4427 100.876 54.91 100.317C54.8564 102.037 54.0296 103.251 52.6553 103.251C52.0146 103.251 51.4948 103.065 50.9476 102.678C50.8143 102.597 50.6675 102.544 50.4938 102.544C50.0666 102.544 49.72 102.865 49.72 103.291C49.72 103.598 49.8665 103.825 50.0933 103.971C50.787 104.438 51.5605 104.745 52.6143 104.745C55.1353 104.745 56.6162 102.665 56.6162 99.663V99.636C56.6162 97.795 56.1759 96.7682 55.4956 96.0747C54.8303 95.4208 54.07 95.0874 52.8955 95.0874ZM54.8566 98.2488C54.8566 99.1559 54.1497 99.9293 52.9626 99.9293C51.8019 99.9293 51.0551 99.2361 51.0551 98.2623V98.2357C51.0551 97.275 51.7485 96.5016 52.9093 96.5016C54.0964 96.5016 54.8566 97.2486 54.8566 98.2219V98.2488ZM17.197 95.1272H17.1703C16.9301 95.1272 16.6898 95.1809 16.3696 95.274L14.9558 95.7273C14.6221 95.8204 14.4088 96.0873 14.4088 96.4342C14.4088 96.8077 14.7425 97.1279 15.1292 97.1279C15.2095 97.1279 15.3293 97.1142 15.4225 97.0878L16.3834 96.7942V103.838C16.3834 104.292 16.7569 104.651 17.197 104.651C17.6508 104.651 18.0105 104.291 18.0105 103.838V95.9405C18.0108 95.4873 17.664 95.1272 17.197 95.1272ZM42.3035 99.743C43.0907 99.3293 43.6641 98.7026 43.6641 97.6623V97.6354C43.6641 96.1948 42.2903 95.1147 40.4227 95.1147C38.555 95.1147 37.1813 96.2086 37.1813 97.6354V97.6623C37.1813 98.7026 37.7552 99.3296 38.5418 99.743C37.488 100.183 36.8607 100.89 36.8607 102.011V102.037C36.8607 103.651 38.3818 104.718 40.4224 104.718C42.4635 104.718 43.984 103.678 43.984 102.011V101.984C43.9843 100.877 43.3307 100.21 42.3035 99.743ZM38.7551 97.7821C38.7551 97.0749 39.4222 96.4878 40.4227 96.4878C41.4234 96.4878 42.0902 97.0749 42.0902 97.795V97.8217C42.0902 98.6224 41.3833 99.1957 40.4227 99.1957C39.462 99.1957 38.7551 98.6221 38.7551 97.8088V97.7821ZM42.3835 101.944C42.3835 102.718 41.6499 103.344 40.4227 103.344C39.1954 103.344 38.475 102.704 38.475 101.944V101.917C38.475 101.063 39.3152 100.504 40.4227 100.504C41.5301 100.504 42.3835 101.063 42.3835 101.917V101.944ZM139.826 26.5582H10.1739C4.56387 26.5582 0 31.1221 0 36.7324V113.268C0 118.878 4.56387 123.442 10.1739 123.442H139.826C145.436 123.442 150 118.878 150 113.268V36.7324C150 31.1221 145.436 26.5582 139.826 26.5582ZM145.191 113.268C145.191 116.226 142.784 118.632 139.826 118.632H10.1739C7.21582 118.632 4.80908 116.226 4.80908 113.268V54.2259H145.191L145.191 113.268ZM145.191 49.4168H4.80908V45.0317H145.191L145.191 49.4168ZM145.191 40.2226H4.80908V36.7324C4.80908 33.774 7.21553 31.3676 10.1739 31.3676H139.826C142.784 31.3676 145.191 33.7743 145.191 36.7324L145.191 40.2226ZM31.7379 95.0874C29.6707 95.0874 28.2563 96.4878 28.2563 98.3156V98.3423C28.2563 100.143 29.577 101.304 31.5645 101.304C32.5652 101.304 33.2851 100.876 33.7523 100.317C33.6987 102.037 32.872 103.251 31.4977 103.251C30.8575 103.251 30.3372 103.065 29.7899 102.678C29.6566 102.597 29.5099 102.544 29.3361 102.544C28.909 102.544 28.5624 102.865 28.5624 103.291C28.5624 103.598 28.7092 103.825 28.9356 103.971C29.6294 104.438 30.4028 104.745 31.4566 104.745C33.9776 104.745 35.4586 102.665 35.4586 99.663V99.636C35.4586 97.795 35.0189 96.7682 34.338 96.0747C33.6721 95.4208 32.9121 95.0874 31.7379 95.0874ZM33.6987 98.2488C33.6987 99.1559 32.9918 99.9293 31.8047 99.9293C30.6439 99.9293 29.8972 99.2361 29.8972 98.2623V98.2357C29.8972 97.275 30.5906 96.5016 31.7514 96.5016C32.9385 96.5016 33.6987 97.2486 33.6987 98.2219V98.2488ZM26.0417 103.144H22.2533L24.174 101.544C25.8281 100.197 26.6022 99.3961 26.6022 97.9286V97.9023C26.6022 96.2347 25.3482 95.1147 23.5207 95.1147C22.0532 95.1147 21.1863 95.6751 20.4261 96.6217C20.306 96.7685 20.2395 96.9551 20.2395 97.1288C20.2395 97.5422 20.5726 97.8756 20.9865 97.8756C21.2534 97.8756 21.4403 97.7558 21.5602 97.6219C22.1338 96.9287 22.6541 96.5818 23.4012 96.5818C24.2549 96.5818 24.9085 97.115 24.9085 98.0358C24.9085 98.8758 24.4415 99.4761 23.1612 100.557L20.2934 102.998C20.0133 103.224 19.8662 103.491 19.8662 103.812C19.8662 104.292 20.24 104.585 20.7466 104.585H26.042C26.4422 104.585 26.7621 104.265 26.7621 103.865C26.7615 103.465 26.4416 103.144 26.0417 103.144ZM104.484 103.731C105.244 104.318 106.204 104.745 107.471 104.745C109.472 104.745 110.886 103.478 110.886 101.584V101.557C110.886 99.5827 109.459 98.6224 107.631 98.6224C107.004 98.6224 106.591 98.7287 106.15 98.8896L106.297 96.7017H109.806C110.206 96.7017 110.539 96.3817 110.539 95.9816C110.539 95.5816 110.206 95.248 109.806 95.248H105.577C105.176 95.248 104.856 95.5547 104.83 95.9816L104.629 99.3428C104.616 99.6498 104.709 99.8898 104.949 100.063C105.269 100.29 105.47 100.383 105.723 100.383C105.977 100.383 106.417 100.063 107.324 100.063C108.458 100.063 109.258 100.65 109.258 101.61V101.637C109.258 102.624 108.498 103.251 107.444 103.251C106.71 103.251 106.057 102.984 105.416 102.463C105.283 102.357 105.136 102.304 104.936 102.304C104.509 102.304 104.149 102.664 104.149 103.091C104.15 103.358 104.283 103.571 104.484 103.731ZM75.4816 104.585H80.7774C81.1775 104.585 81.4978 104.265 81.4978 103.865C81.4978 103.465 81.1775 103.144 80.7774 103.144H76.989L78.9097 101.544C80.5638 100.197 81.3378 99.3961 81.3378 97.9286V97.9023C81.3378 96.2347 80.0839 95.1147 78.2564 95.1147C76.7889 95.1147 75.922 95.6751 75.1617 96.6214C75.0416 96.7682 74.9751 96.9548 74.9751 97.1285C74.9751 97.5419 75.3082 97.8753 75.7222 97.8753C75.9891 97.8753 76.1754 97.7555 76.2958 97.6216C76.8697 96.9284 77.3897 96.5816 78.1368 96.5816C78.9905 96.5816 79.6441 97.1148 79.6441 98.0356C79.6441 98.8755 79.1774 99.4758 77.8969 100.556L75.029 102.997C74.7489 103.224 74.6022 103.491 74.6022 103.811C74.6013 104.292 74.9748 104.585 75.4816 104.585ZM115.595 84.0088H132.299C135.339 84.0088 137.811 81.5358 137.811 78.4963V68.3959C137.811 65.3564 135.338 62.884 132.299 62.884H115.595C112.555 62.884 110.083 65.3569 110.083 68.3959V78.4963C110.083 81.5358 112.555 84.0088 115.595 84.0088ZM114.892 68.3959C114.892 68.0148 115.214 67.6931 115.595 67.6931H132.299C132.68 67.6931 133.002 68.0151 133.002 68.3959V78.4963C133.002 78.8775 132.68 79.1997 132.299 79.1997H115.595C115.214 79.1997 114.892 78.8775 114.892 78.4963V68.3959ZM99.1603 104.718C101.201 104.718 102.722 103.678 102.722 102.011V101.984C102.722 100.876 102.069 100.21 101.041 99.7427C101.828 99.329 102.402 98.7023 102.402 97.662V97.6351C102.402 96.1945 101.028 95.1144 99.1603 95.1144C97.2926 95.1144 95.9189 96.2083 95.9189 97.6351V97.662C95.9189 98.7023 96.4925 99.3293 97.2791 99.7427C96.2253 100.183 95.5983 100.89 95.5983 102.01V102.037C95.5986 103.651 97.1194 104.718 99.1603 104.718ZM97.4927 97.7821C97.4927 97.0749 98.1598 96.4878 99.1603 96.4878C100.161 96.4878 100.828 97.0749 100.828 97.795V97.8217C100.828 98.6224 100.121 99.1957 99.1603 99.1957C98.1996 99.1957 97.4927 98.6221 97.4927 97.8088V97.7821ZM97.2126 101.917C97.2126 101.063 98.0531 100.504 99.1603 100.504C100.267 100.504 101.121 101.063 101.121 101.917V101.944C101.121 102.718 100.388 103.344 99.1603 103.344C97.933 103.344 97.2126 102.704 97.2126 101.944V101.917ZM90.3023 101.304C91.3028 101.304 92.023 100.876 92.4899 100.317C92.4363 102.037 91.6096 103.251 90.2358 103.251C89.5951 103.251 89.0757 103.065 88.5281 102.678C88.3948 102.597 88.2481 102.544 88.0743 102.544C87.6475 102.544 87.3006 102.865 87.3006 103.291C87.3006 103.598 87.4471 103.825 87.6741 103.971C88.3679 104.438 89.1413 104.745 90.1951 104.745C92.7164 104.745 94.1971 102.665 94.1971 99.663V99.636C94.1971 97.795 93.7567 96.7682 93.0765 96.0747C92.4097 95.4211 91.6491 95.0874 90.4752 95.0874C88.408 95.0874 86.9936 96.4878 86.9936 98.3156V98.3423C86.9939 100.143 88.3148 101.304 90.3023 101.304ZM88.6351 98.2354C88.6351 97.2747 89.3285 96.5013 90.4893 96.5013C91.6764 96.5013 92.4366 97.2483 92.4366 98.2216V98.2485C92.4366 99.1556 91.7294 99.929 90.5426 99.929C89.3818 99.929 88.6351 99.2358 88.6351 98.262V98.2354ZM119.464 101.143H118.744V95.901C118.744 95.4607 118.384 95.1141 117.943 95.1141C117.463 95.1141 117.236 95.3007 116.942 95.6476L112.554 100.85C112.313 101.13 112.194 101.397 112.194 101.717C112.194 102.17 112.554 102.49 112.994 102.49H117.169V103.878C117.169 104.318 117.516 104.651 117.957 104.651C118.397 104.651 118.743 104.318 118.743 103.878V102.49H119.464C119.851 102.49 120.144 102.197 120.144 101.824C120.144 101.45 119.851 101.143 119.464 101.143ZM117.17 101.143H114.102L117.17 97.4487V101.143ZM66.8098 95.9678C66.8098 96.3548 67.13 96.6747 67.5302 96.6747H70.9184L68.7305 99.0091C68.4771 99.2628 68.3836 99.4629 68.3836 99.6756C68.3836 100.063 68.7035 100.383 69.0908 100.383H69.4242C70.7317 100.383 71.572 100.903 71.572 101.823V101.85C71.572 102.704 70.8782 103.264 69.9577 103.264C69.0908 103.264 68.424 102.957 67.8369 102.37C67.7036 102.25 67.5302 102.157 67.2899 102.157C66.8631 102.157 66.5027 102.517 66.5027 102.943C66.5027 103.184 66.6226 103.41 66.7696 103.531C67.5302 104.264 68.5573 104.745 69.9314 104.745C71.8787 104.745 73.1994 103.504 73.1994 101.783V101.757C73.1994 100.035 71.8652 99.3149 70.4514 99.1418L72.6524 96.861C72.9325 96.581 73.1191 96.3542 73.1191 95.9672C73.1191 95.5269 72.772 95.2471 72.3056 95.2471H67.5299C67.1303 95.2477 66.8098 95.5676 66.8098 95.9678ZM63.4611 99.743C64.2483 99.3293 64.8217 98.7026 64.8217 97.6623V97.6354C64.8217 96.1948 63.448 95.1147 61.5803 95.1147C59.7126 95.1147 58.3389 96.2086 58.3389 97.6354V97.6623C58.3389 98.7026 58.9128 99.3296 59.6994 99.743C58.6456 100.183 58.0184 100.89 58.0184 102.011V102.037C58.0184 103.651 59.5395 104.718 61.58 104.718C63.6211 104.718 65.1416 103.678 65.1416 102.011V101.984C65.1422 100.877 64.4883 100.21 63.4611 99.743ZM59.9133 97.7821C59.9133 97.0749 60.5801 96.4878 61.5806 96.4878C62.5814 96.4878 63.2481 97.0749 63.2481 97.795V97.8217C63.2481 98.6224 62.5412 99.1957 61.5806 99.1957C60.6199 99.1957 59.9133 98.6221 59.9133 97.8088V97.7821ZM63.5411 101.944C63.5411 102.718 62.8075 103.344 61.5803 103.344C60.353 103.344 59.6329 102.704 59.6329 101.944V101.917C59.6329 101.063 60.4732 100.504 61.5803 100.504C62.6877 100.504 63.5411 101.063 63.5411 101.917V101.944ZM14.0092 84.1403H67.2299C68.5579 84.1403 69.6346 83.064 69.6346 81.7357V65.1574C69.6346 63.8291 68.5579 62.7528 67.2299 62.7528H14.0092C12.6812 62.7528 11.6045 63.8291 11.6045 65.1574V81.7357C11.6045 83.0637 12.6812 84.1403 14.0092 84.1403ZM16.4139 67.5618H64.8252V79.331H16.4139V67.5618Z" fill="#1E252B"/>
</svg>
