<svg width="50" height="50" viewBox="0 0 36 36" fill="none" xmlns="http://www.w3.org/2000/svg">
<path d="M4.5 14C4.5 13.0572 4.5 12.5858 4.79289 12.2929C5.08579 12 5.55719 12 6.5 12H29.5C30.4428 12 30.9142 12 31.2071 12.2929C31.5 12.5858 31.5 13.0572 31.5 14V17.5C31.5 18.4428 31.5 18.9142 31.2071 19.2071C30.9142 19.5 30.4428 19.5 29.5 19.5H29C28.0572 19.5 27.5858 19.5 27.2929 19.7929C27 20.0858 27 20.5572 27 21.5V28C27 28.9428 27 29.4142 26.7071 29.7071C26.4142 30 25.9428 30 25 30H11C10.0572 30 9.58579 30 9.29289 29.7071C9 29.4142 9 28.9428 9 28V21.5C9 20.5572 9 20.0858 8.70711 19.7929C8.41421 19.5 7.94281 19.5 7 19.5H6.5C5.55719 19.5 5.08579 19.5 4.79289 19.2071C4.5 18.9142 4.5 18.4428 4.5 17.5V14Z" stroke="#50C2C9"/>
<path d="M7.5 19.5H28.5" stroke="#50C2C9" stroke-linecap="round"/>
<path d="M18 10.5L18 30" stroke="#50C2C9" stroke-linecap="round"/>
<path d="M18 10.5L16.0862 8.58618C14.8787 7.37866 13.4066 6.46886 11.7865 5.92884L10.1325 5.37748C8.83739 4.9458 7.5 5.90974 7.5 7.27485V9.05848C7.5 9.91934 8.05086 10.6836 8.86754 10.9558L12 12" stroke="#50C2C9" stroke-linecap="round"/>
<path d="M18 10.5L19.9138 8.58618C21.1213 7.37866 22.5934 6.46886 24.2135 5.92884L25.8675 5.37748C27.1626 4.9458 28.5 5.90974 28.5 7.27485V9.05848C28.5 9.91934 27.9491 10.6836 27.1325 10.9558L24 12" stroke="#50C2C9" stroke-linecap="round"/>
</svg>
