<svg width="147" height="136" viewBox="0 0 147 136" fill="none" xmlns="http://www.w3.org/2000/svg">
<g clip-path="url(#clip0_203_169)">
<path d="M105.613 31.3303V46.7145C105.613 46.8566 105.538 46.9928 105.407 47.0933C105.275 47.1938 105.097 47.2505 104.911 47.2508H104.411V127.392C104.411 129.61 103.258 131.737 101.205 133.305C99.1529 134.873 96.3692 135.754 93.4665 135.754H27.9233C25.0211 135.754 22.2379 134.873 20.1859 133.305C18.1339 131.737 16.9813 129.61 16.9816 127.393V50.0616H16.6198C16.4885 50.0617 16.3626 50.0221 16.2695 49.9514C16.1764 49.8807 16.1238 49.7847 16.1231 49.6845V40.929C16.1231 40.8792 16.136 40.8299 16.1609 40.7838C16.1858 40.7378 16.2224 40.696 16.2685 40.6607C16.3146 40.6255 16.3694 40.5975 16.4296 40.5785C16.4898 40.5594 16.5544 40.5496 16.6196 40.5496H16.9816V37.2517H16.6167C16.4789 37.2512 16.347 37.2091 16.2499 37.1344C16.1527 37.0598 16.0983 36.9587 16.0986 36.8535V28.2175C16.099 28.1126 16.1537 28.012 16.2508 27.9379C16.3479 27.8637 16.4794 27.8219 16.6167 27.8216H16.9816V23.3198H16.6106C16.5503 23.3198 16.4905 23.3108 16.4348 23.2932C16.379 23.2757 16.3284 23.2499 16.2857 23.2173C16.243 23.1848 16.2091 23.1461 16.1859 23.1036C16.1628 23.061 16.1508 23.0154 16.1507 22.9693V18.2557C16.1505 18.1623 16.1987 18.0725 16.2849 18.0062C16.3711 17.9399 16.4883 17.9025 16.6106 17.9021H16.9816V8.3596C16.9817 6.14252 18.1345 4.01627 20.1865 2.44856C22.2384 0.880848 25.0214 8.03615e-05 27.9233 0H93.4664C96.3687 -9.41672e-06 99.1521 0.880654 101.205 2.44832C103.257 4.01598 104.41 6.14228 104.411 8.3596V30.794H104.911C105.097 30.7943 105.275 30.851 105.407 30.9515C105.538 31.052 105.613 31.1882 105.613 31.3303Z" fill="#3F3D56"/>
<path d="M53.2022 4.28796H63.8526C64.0593 4.28796 64.2575 4.35069 64.4037 4.46235C64.5498 4.574 64.6319 4.72544 64.6319 4.88335V5.58665C64.6319 5.74455 64.5498 5.89599 64.4037 6.00765C64.2575 6.1193 64.0593 6.18203 63.8526 6.18203H53.2022C52.9955 6.18203 52.7973 6.1193 52.6512 6.00765C52.505 5.89599 52.4229 5.74456 52.4229 5.58665V4.88334C52.4229 4.72544 52.505 4.574 52.6512 4.46235C52.7973 4.35069 52.9955 4.28796 53.2022 4.28796Z" fill="#E6E8EC"/>
<path d="M67.8841 6.30929C68.6607 6.30929 69.2903 5.8283 69.2903 5.23497C69.2903 4.64164 68.6607 4.16064 67.8841 4.16064C67.1075 4.16064 66.4779 4.64164 66.4779 5.23497C66.4779 5.8283 67.1075 6.30929 67.8841 6.30929Z" fill="#E6E8EC"/>
<path d="M99.1704 10.0094V128.086C99.1693 129.493 98.4373 130.841 97.1352 131.836C95.8331 132.83 94.0675 133.389 92.2264 133.389H29.4854C28.5749 133.39 27.6731 133.254 26.8314 132.989C25.9896 132.724 25.2245 132.335 24.5797 131.843C23.9349 131.352 23.423 130.769 23.0733 130.127C22.7236 129.484 22.5428 128.796 22.5414 128.1V10.0141C22.5414 9.31737 22.721 8.62748 23.0699 7.9838C23.4189 7.34012 23.9304 6.75526 24.5752 6.26262C25.22 5.76997 25.9855 5.37919 26.828 5.11258C27.6705 4.84598 28.5735 4.70877 29.4854 4.7088H38.8759V5.62932C38.8759 6.78787 39.4783 7.89898 40.5506 8.71821C41.6228 9.53743 43.0771 9.99767 44.5935 9.99768H76.5021C78.0185 9.99767 79.4728 9.53743 80.5451 8.71821C81.6174 7.89898 82.2197 6.78788 82.2198 5.62932V4.7088H92.2264C93.138 4.70825 94.0408 4.84494 94.8832 5.11107C95.7256 5.37719 96.4911 5.76753 97.136 6.25979C97.7809 6.75204 98.2925 7.33656 98.6416 7.97993C98.9906 8.62331 99.1703 9.31293 99.1704 10.0094Z" fill="white"/>
<path d="M99.1704 112.238V128.086C99.1693 129.493 98.4373 130.841 97.1352 131.836C95.8331 132.83 94.0675 133.389 92.2264 133.389H29.4854C28.5749 133.39 27.6731 133.254 26.8314 132.989C25.9896 132.724 25.2245 132.335 24.5797 131.843C23.9349 131.352 23.423 130.769 23.0733 130.127C22.7236 129.484 22.5428 128.796 22.5414 128.1V112.238H99.1704Z" fill="#F2F2F2"/>
<path d="M29.2784 19.4839C29.0345 19.4842 28.8007 19.5582 28.6283 19.69C28.4559 19.8217 28.3589 20.0003 28.3586 20.1866V32.835C28.3589 33.0213 28.4559 33.1999 28.6283 33.3316C28.8007 33.4633 29.0345 33.5374 29.2784 33.5376H45.8335C46.0774 33.5374 46.3112 33.4633 46.4836 33.3316C46.656 33.1999 46.753 33.0213 46.7533 32.835V20.1866C46.753 20.0003 46.656 19.8217 46.4836 19.69C46.3112 19.5582 46.0774 19.4842 45.8335 19.4839H29.2784Z" fill="#E6E6E6"/>
<path d="M52.5784 19.4839C52.3345 19.4842 52.1007 19.5582 51.9283 19.69C51.7559 19.8217 51.6589 20.0003 51.6586 20.1866V32.835C51.6589 33.0213 51.7559 33.1999 51.9283 33.3316C52.1007 33.4633 52.3345 33.5374 52.5784 33.5376H69.1335C69.3774 33.5374 69.6112 33.4633 69.7836 33.3316C69.956 33.1999 70.053 33.0213 70.0533 32.835V20.1866C70.053 20.0003 69.956 19.8217 69.7836 19.69C69.6112 19.5582 69.3774 19.4842 69.1335 19.4839H52.5784Z" fill="#E6E6E6"/>
<path d="M75.8781 19.4839C75.6343 19.4842 75.4005 19.5583 75.2281 19.69C75.0557 19.8217 74.9587 20.0003 74.9584 20.1866V32.835C74.9587 33.0213 75.0557 33.1999 75.2281 33.3316C75.4005 33.4633 75.6343 33.5374 75.8781 33.5376H92.4333C92.6771 33.5374 92.9109 33.4633 93.0834 33.3316C93.2558 33.1999 93.3528 33.0213 93.353 32.835V20.1866C93.3528 20.0003 93.2558 19.8217 93.0834 19.69C92.9109 19.5582 92.6771 19.4842 92.4333 19.4839H75.8781Z" fill="#E6E6E6"/>
<path d="M29.3166 38.9249C29.0728 38.9251 28.839 38.9992 28.6666 39.1309C28.4942 39.2626 28.3972 39.4412 28.3969 39.6275V52.2759C28.3972 52.4622 28.4942 52.6408 28.6666 52.7725C28.839 52.9043 29.0728 52.9784 29.3166 52.9786H45.8718C46.1157 52.9784 46.3494 52.9043 46.5219 52.7725C46.6943 52.6408 46.7913 52.4622 46.7915 52.2759V39.6275C46.7913 39.4412 46.6943 39.2626 46.5219 39.1309C46.3494 38.9992 46.1157 38.9251 45.8718 38.9249H29.3166Z" fill="#E6E6E6"/>
<path d="M52.6166 38.9249C52.3728 38.9251 52.139 38.9992 51.9665 39.1309C51.7941 39.2626 51.6971 39.4412 51.6969 39.6275V52.2759C51.6971 52.4622 51.7941 52.6408 51.9665 52.7725C52.139 52.9043 52.3728 52.9784 52.6166 52.9786H69.1718C69.4156 52.9784 69.6494 52.9043 69.8218 52.7725C69.9942 52.6408 70.0912 52.4622 70.0915 52.2759V39.6275C70.0912 39.4412 69.9942 39.2626 69.8218 39.1309C69.6494 38.9992 69.4156 38.9251 69.1718 38.9249H52.6166Z" fill="#E6E6E6"/>
<path d="M75.9166 38.9249C75.6727 38.9251 75.4389 38.9992 75.2665 39.1309C75.0941 39.2626 74.9971 39.4412 74.9968 39.6275V52.2759C74.9971 52.4622 75.0941 52.6408 75.2665 52.7725C75.4389 52.9043 75.6727 52.9784 75.9166 52.9786H92.4717C92.7156 52.9784 92.9494 52.9043 93.1218 52.7725C93.2942 52.6408 93.3912 52.4622 93.3915 52.2759V39.6275C93.3912 39.4412 93.2942 39.2626 93.1218 39.1309C92.9494 38.9992 92.7156 38.9251 92.4717 38.9249H75.9166Z" fill="#E6E6E6"/>
<path d="M29.355 58.3658C29.1112 58.366 28.8774 58.4401 28.705 58.5719C28.5326 58.7036 28.4356 58.8822 28.4353 59.0685V71.7169C28.4356 71.9032 28.5326 72.0818 28.705 72.2135C28.8774 72.3452 29.1112 72.4193 29.355 72.4195H45.9102C46.154 72.4193 46.3878 72.3452 46.5603 72.2135C46.7327 72.0818 46.8297 71.9032 46.8299 71.7169V59.0685C46.8297 58.8822 46.7327 58.7036 46.5603 58.5719C46.3878 58.4401 46.154 58.366 45.9102 58.3658H29.355Z" fill="#E6E6E6"/>
<path d="M52.655 58.3658C52.4112 58.366 52.1774 58.4401 52.005 58.5719C51.8325 58.7036 51.7356 58.8822 51.7353 59.0685V71.7169C51.7356 71.9032 51.8325 72.0818 52.005 72.2135C52.1774 72.3452 52.4112 72.4193 52.655 72.4195H69.2102C69.454 72.4193 69.6878 72.3452 69.8602 72.2135C70.0327 72.0818 70.1297 71.9032 70.1299 71.7169V59.0685C70.1297 58.8822 70.0327 58.7036 69.8602 58.5719C69.6878 58.4401 69.454 58.366 69.2102 58.3658H52.655Z" fill="#E6E6E6"/>
<path d="M75.9549 58.3658C75.711 58.366 75.4772 58.4401 75.3048 58.5719C75.1324 58.7036 75.0354 58.8822 75.0351 59.0685V71.7169C75.0354 71.9032 75.1324 72.0818 75.3048 72.2135C75.4772 72.3452 75.711 72.4193 75.9549 72.4195H92.51C92.7539 72.4193 92.9877 72.3452 93.1601 72.2135C93.3325 72.0818 93.4295 71.9032 93.4298 71.7169V59.0685C93.4295 58.8822 93.3325 58.7036 93.1601 58.5719C92.9877 58.4401 92.7539 58.366 92.51 58.3658H75.9549Z" fill="#E6E6E6"/>
<path d="M29.3166 115.752C29.0728 115.752 28.839 115.826 28.6666 115.958C28.4942 116.089 28.3972 116.268 28.3969 116.454V129.103C28.3972 129.289 28.4942 129.468 28.6666 129.599C28.839 129.731 29.0728 129.805 29.3166 129.805H45.8718C46.1157 129.805 46.3494 129.731 46.5219 129.599C46.6943 129.468 46.7913 129.289 46.7915 129.103V116.454C46.7913 116.268 46.6943 116.089 46.5219 115.958C46.3494 115.826 46.1157 115.752 45.8718 115.752H29.3166Z" fill="#50C2C9"/>
<path d="M52.6166 115.752C52.3728 115.752 52.139 115.826 51.9665 115.958C51.7941 116.089 51.6971 116.268 51.6969 116.454V129.103C51.6971 129.289 51.7941 129.468 51.9665 129.599C52.139 129.731 52.3728 129.805 52.6166 129.805H69.1718C69.4156 129.805 69.6494 129.731 69.8218 129.599C69.9942 129.468 70.0912 129.289 70.0915 129.103V116.454C70.0912 116.268 69.9942 116.089 69.8218 115.958C69.6494 115.826 69.4156 115.752 69.1718 115.752H52.6166Z" fill="#50C2C9"/>
<path d="M75.9166 115.752C75.6727 115.752 75.4389 115.826 75.2665 115.958C75.0941 116.089 74.9971 116.268 74.9968 116.454V129.103C74.9971 129.289 75.0941 129.468 75.2665 129.599C75.4389 129.731 75.6727 129.805 75.9166 129.805H92.4717C92.7156 129.805 92.9494 129.731 93.1218 129.599C93.2942 129.468 93.3912 129.289 93.3915 129.103V116.454C93.3912 116.268 93.2942 116.089 93.1218 115.958C92.9494 115.826 92.7156 115.752 92.4717 115.752H75.9166Z" fill="#50C2C9"/>
<path d="M29.3934 77.8068C29.1495 77.807 28.9157 77.8811 28.7433 78.0128C28.5709 78.1445 28.4739 78.3231 28.4736 78.5094V91.1578C28.4739 91.3441 28.5709 91.5227 28.7433 91.6544C28.9157 91.7862 29.1495 91.8603 29.3934 91.8605H45.9485C46.1924 91.8603 46.4261 91.7862 46.5986 91.6544C46.771 91.5227 46.868 91.3441 46.8683 91.1578V78.5095C46.868 78.3232 46.771 78.1445 46.5986 78.0128C46.4261 77.8811 46.1924 77.807 45.9485 77.8068L29.3934 77.8068Z" fill="#E6E6E6"/>
<path d="M122.628 86.2185L123.467 89.3919C123.56 89.7433 123.744 90.0768 124.009 90.3728C124.274 90.6687 124.614 90.9209 125.009 91.1145C125.404 91.3081 125.846 91.4392 126.308 91.4998C126.77 91.5605 127.244 91.5495 127.701 91.4676C128.26 91.3673 128.779 91.1634 129.211 90.8739C129.643 90.5844 129.975 90.2182 130.178 89.8075C130.381 89.3968 130.448 88.9543 130.375 88.5189C130.301 88.0835 130.088 87.6687 129.755 87.311L127.327 84.7026L121.319 72.1153L122.416 61.3337C118.968 60.3445 115.458 59.2365 113.555 61.1902L115.919 72.9872L122.628 86.2185Z" fill="#FFB9B9"/>
<path d="M125.949 88.3792C125.735 88.3794 125.531 88.4443 125.38 88.5597C125.228 88.6751 125.144 88.8315 125.143 88.9947V100.074C125.144 100.237 125.228 100.394 125.38 100.509C125.531 100.624 125.735 100.689 125.949 100.69H140.45C140.664 100.689 140.869 100.624 141.02 100.509C141.171 100.394 141.256 100.237 141.256 100.074V88.9947C141.256 88.8315 141.171 88.6751 141.02 88.5597C140.869 88.4443 140.664 88.3794 140.45 88.3792H125.949Z" fill="#50C2C9"/>
<path d="M129.835 45.2371C129.835 45.1717 129.834 45.1075 129.832 45.0398C129.696 40.9224 125.43 37.6971 120.12 37.6971C118.839 37.6957 117.571 37.8904 116.391 38.2698C115.211 38.6492 114.143 39.2055 113.249 39.9058C111.418 41.3274 110.396 43.243 110.403 45.2371V52.6204H129.835V45.2371Z" fill="#2F2E41"/>
<path d="M124.485 134.432C124.539 134.141 124.483 133.844 124.323 133.577C124.163 133.31 123.907 133.083 123.584 132.923L117.805 130.757L113.448 131.177L112.419 133.995C112.376 134.196 112.386 134.401 112.45 134.599C112.514 134.797 112.629 134.982 112.79 135.145C112.951 135.307 113.153 135.443 113.384 135.543C113.616 135.644 113.872 135.708 114.137 135.731L122.266 135.744C122.787 135.789 123.31 135.677 123.724 135.432C124.138 135.187 124.411 134.828 124.485 134.432Z" fill="#2F2E41"/>
<path d="M104.465 89.4571L105.135 92.7278L105.195 93.0275L107.771 105.599L108.567 109.484L108.811 110.676L109.488 114.437L112.644 131.95L118.131 131L118.393 110.81L118.438 107.344L118.48 104.414L118.518 101.837L118.671 91.4709L104.465 89.4571Z" fill="#2F2E41"/>
<path d="M122.156 50.4379C126.219 50.4379 129.513 47.9213 129.513 44.8169C129.513 41.7126 126.219 39.196 122.156 39.196C118.092 39.196 114.798 41.7126 114.798 44.8169C114.798 47.9213 118.092 50.4379 122.156 50.4379Z" fill="#FFB9B9"/>
<path d="M114.001 54.4193L122.34 57.6045C121.974 54.4462 122.872 51.2775 124.915 48.5173L117.68 47.6742C117.582 49.8938 116.113 52.1484 114.001 54.4193Z" fill="#FFB9B9"/>
<path d="M109.955 76.341L124.669 78.7768L125.895 71.4696C126.694 68.3443 128.133 65.2876 125.612 62.8319L125.243 60.3062C125.064 59.0841 124.526 57.9087 123.668 56.868C122.811 55.8273 121.657 54.9482 120.292 54.2964L115.841 52.171C106.614 55.9843 106.985 65.4037 109.955 76.341Z" fill="#E6E6E6"/>
<path opacity="0.2" d="M108.567 109.484L108.811 110.676L109.488 114.437L118.393 110.81L118.438 107.344L118.48 104.414L108.567 109.484Z" fill="black"/>
<path opacity="0.2" d="M104.465 89.4571L105.135 92.7279L105.195 93.0276C106.258 94.3764 107.649 95.5571 109.293 96.5056L118.519 101.837L118.671 91.4709L104.465 89.4571Z" fill="black"/>
<path d="M106.399 109.224L108.116 113.627L130.295 104.591C131.056 104.255 131.709 103.795 132.208 103.243C132.708 102.691 133.041 102.061 133.183 101.399C133.325 100.736 133.274 100.058 133.032 99.4131C132.79 98.768 132.363 98.1719 131.783 97.6679L119.642 87.1145L125.037 77.84L109.587 74.7484L107.87 77.5589C104.284 80.1164 102.671 83.1008 103.029 86.5123C103.218 88.2061 103.874 89.8501 104.954 91.3364C106.033 92.8228 107.512 94.1178 109.293 95.1364L120.868 101.823L106.399 109.224Z" fill="#2F2E41"/>
<path d="M104.716 117.626C105.096 117.649 105.477 117.587 105.813 117.45C106.149 117.312 106.426 117.103 106.612 116.849L109.936 112.299L109.114 109.033L105.399 108.435C105.136 108.415 104.871 108.436 104.619 108.496C104.367 108.557 104.134 108.657 103.934 108.788C103.734 108.92 103.571 109.082 103.456 109.263C103.34 109.445 103.274 109.642 103.261 109.844L102.875 116.033C102.851 116.43 103.029 116.818 103.373 117.115C103.717 117.412 104.198 117.596 104.716 117.626Z" fill="#2F2E41"/>
<path d="M109.464 87.4892L109.332 90.7251C109.317 91.0834 109.397 91.4403 109.567 91.7746C109.736 92.1089 109.991 92.4139 110.318 92.6713C110.645 92.9287 111.035 93.1334 111.468 93.2731C111.9 93.4129 112.364 93.4849 112.833 93.4849C113.408 93.4849 113.974 93.3769 114.481 93.1705C114.988 92.964 115.421 92.6654 115.741 92.301C116.061 91.9366 116.26 91.5176 116.318 91.0809C116.376 90.6441 116.293 90.2031 116.076 89.7967L114.492 86.8335L112.407 73.5306L116.699 63.2255C113.638 61.6606 110.552 59.9693 108.116 61.5392L106.889 73.4369L109.464 87.4892Z" fill="#FFB9B9"/>
<path d="M106.644 63.0381C111.162 61.3883 114.625 62.2299 117.19 65.1928L118.852 58.106C119.044 57.2894 118.878 56.4473 118.382 55.7097C117.885 54.972 117.084 54.3796 116.103 54.0239C115.611 53.8455 115.077 53.7453 114.532 53.7296C113.988 53.7138 113.445 53.7828 112.936 53.9323C112.428 54.0818 111.964 54.3088 111.574 54.5994C111.184 54.89 110.875 55.2381 110.667 55.6227L106.644 63.0381Z" fill="#E6E6E6"/>
<path d="M114.092 40.8827L115.939 45.3714L131.904 45.1546C131.85 43.5841 131.155 42.0659 129.916 40.812C128.677 39.5581 126.956 38.6311 124.994 38.1606C123.032 37.6901 120.927 37.6995 118.973 38.1875C117.018 38.6755 115.312 39.6178 114.092 40.8827Z" fill="#2F2E41"/>
<path d="M146.899 136H0V135.574H147L146.899 136Z" fill="#3F3D56"/>
</g>
<defs>
<clipPath id="clip0_203_169">
<rect width="147" height="136" fill="white"/>
</clipPath>
</defs>
</svg>
