<svg width="168" height="142" viewBox="0 0 168 142" fill="none" xmlns="http://www.w3.org/2000/svg">
<g clip-path="url(#clip0_203_96)">
<path d="M98.6576 36.4543H93.6768C93.4229 36.454 93.1794 36.3534 92.9999 36.1744C92.8203 35.9955 92.7193 35.753 92.719 35.5V30.5376C92.7193 30.2846 92.8203 30.042 92.9999 29.8631C93.1794 29.6842 93.4229 29.5836 93.6768 29.5833H98.6576C98.9116 29.5836 99.155 29.6842 99.3346 29.8631C99.5142 30.042 99.6152 30.2846 99.6154 30.5376V35.5C99.6152 35.753 99.5142 35.9955 99.3346 36.1744C99.155 36.3534 98.9116 36.454 98.6576 36.4543ZM93.6768 29.965C93.5245 29.9652 93.3784 30.0256 93.2706 30.1329C93.1629 30.2403 93.1023 30.3858 93.1021 30.5376V35.5C93.1023 35.6518 93.1629 35.7973 93.2706 35.9047C93.3784 36.012 93.5245 36.0724 93.6768 36.0726H98.6576C98.81 36.0724 98.9561 36.012 99.0638 35.9047C99.1715 35.7973 99.2321 35.6518 99.2323 35.5V30.5376C99.2321 30.3858 99.1715 30.2403 99.0638 30.1329C98.9561 30.0256 98.81 29.9652 98.6576 29.965H93.6768Z" fill="#E6E6E6"/>
<path d="M40.6124 6.87097H35.6317C35.3777 6.87068 35.1343 6.77004 34.9547 6.59114C34.7751 6.41224 34.6741 6.16967 34.6738 5.91667V0.954301C34.6741 0.701294 34.7751 0.458731 34.9547 0.279828C35.1343 0.100924 35.3777 0.000289449 35.6317 0H40.6124C40.8664 0.000289449 41.1098 0.100924 41.2894 0.279828C41.469 0.458731 41.57 0.701294 41.5703 0.954301V5.91667C41.57 6.16967 41.469 6.41224 41.2894 6.59114C41.1098 6.77004 40.8664 6.87068 40.6124 6.87097ZM35.6317 0.38172C35.4793 0.381886 35.3332 0.442265 35.2255 0.549608C35.1177 0.656952 35.0571 0.802494 35.057 0.954301V5.91667C35.0571 6.06847 35.1177 6.21402 35.2255 6.32136C35.3332 6.4287 35.4793 6.48908 35.6317 6.48925H40.6124C40.7648 6.48908 40.9109 6.4287 41.0186 6.32136C41.1264 6.21402 41.187 6.06847 41.1871 5.91667V0.954301C41.187 0.802494 41.1264 0.656952 41.0186 0.549608C40.9109 0.442265 40.7648 0.381886 40.6124 0.38172H35.6317Z" fill="#E6E6E6"/>
<path d="M95.5925 33.9731H90.6118C90.3578 33.9729 90.1144 33.8722 89.9348 33.6933C89.7552 33.5144 89.6542 33.2718 89.6539 33.0188V28.0565C89.6542 27.8035 89.7552 27.5609 89.9348 27.382C90.1144 27.2031 90.3578 27.1025 90.6118 27.1022H95.5925C95.8465 27.1025 96.09 27.2031 96.2695 27.382C96.4491 27.5609 96.5501 27.8035 96.5504 28.0565V33.0188C96.5501 33.2718 96.4491 33.5144 96.2695 33.6933C96.09 33.8722 95.8465 33.9729 95.5925 33.9731ZM90.6118 27.4839C90.4594 27.4841 90.3133 27.5444 90.2056 27.6518C90.0978 27.7591 90.0372 27.9047 90.0371 28.0565V33.0188C90.0372 33.1706 90.0978 33.3162 90.2056 33.4235C90.3133 33.5309 90.4594 33.5913 90.6118 33.5914H95.5925C95.7449 33.5913 95.891 33.5309 95.9987 33.4235C96.1065 33.3162 96.1671 33.1706 96.1672 33.0188V28.0565C96.1671 27.9047 96.1065 27.7591 95.9987 27.6518C95.891 27.5444 95.7449 27.4841 95.5925 27.4839H90.6118Z" fill="#E6E6E6"/>
<path d="M9.00368 75.3898H4.0229C3.76896 75.3895 3.5255 75.2889 3.34593 75.11C3.16636 74.9311 3.06535 74.6885 3.06506 74.4355V69.4731C3.06535 69.2201 3.16636 68.9775 3.34593 68.7986C3.5255 68.6197 3.76896 68.5191 4.0229 68.5188H9.00368C9.25762 68.5191 9.50108 68.6197 9.68065 68.7986C9.86022 68.9775 9.96123 69.2201 9.96152 69.4731V74.4355C9.96123 74.6885 9.86022 74.9311 9.68065 75.11C9.50108 75.2889 9.25762 75.3895 9.00368 75.3898ZM4.0229 68.9005C3.87053 68.9007 3.72445 68.9611 3.61671 69.0684C3.50897 69.1758 3.44837 69.3213 3.4482 69.4731V74.4355C3.44837 74.5873 3.50897 74.7328 3.61671 74.8402C3.72445 74.9475 3.87053 75.0079 4.0229 75.0081H9.00368C9.15605 75.0079 9.30213 74.9475 9.40987 74.8402C9.51761 74.7328 9.57821 74.5873 9.57838 74.4355V69.4731C9.57821 69.3213 9.51761 69.1758 9.40987 69.0684C9.30213 68.9611 9.15605 68.9007 9.00368 68.9005H4.0229Z" fill="#E6E6E6"/>
<path d="M5.93861 72.9086H0.957841C0.703895 72.9083 0.460433 72.8077 0.280866 72.6288C0.101299 72.4499 0.000290523 72.2073 0 71.9543V66.992C0.000290523 66.739 0.101299 66.4964 0.280866 66.3175C0.460433 66.1386 0.703895 66.0379 0.957841 66.0377H5.93861C6.19256 66.0379 6.43602 66.1386 6.61559 66.3175C6.79516 66.4964 6.89616 66.739 6.89645 66.992V71.9543C6.89616 72.2073 6.79516 72.4499 6.61559 72.6288C6.43602 72.8077 6.19256 72.9083 5.93861 72.9086ZM0.957841 66.4194C0.805471 66.4195 0.659389 66.4799 0.551647 66.5873C0.443905 66.6946 0.383303 66.8402 0.383136 66.992V71.9543C0.383303 72.1061 0.443905 72.2517 0.551647 72.359C0.659389 72.4664 0.805471 72.5267 0.957841 72.5269H5.93861C6.09098 72.5267 6.23707 72.4664 6.34481 72.359C6.45255 72.2517 6.51315 72.1061 6.51332 71.9543V66.992C6.51315 66.8402 6.45255 66.6946 6.34481 66.5873C6.23707 66.4799 6.09098 66.4195 5.93861 66.4194H0.957841Z" fill="#E6E6E6"/>
<path d="M17.7065 16.4213H63.8008C66.0251 16.4213 68.1832 17.1753 69.9204 18.5593C71.6576 19.9433 72.8705 21.875 73.3596 24.0368L96.6502 126.961C96.9042 128.084 96.9087 129.249 96.6633 130.373C96.4179 131.498 95.9286 132.555 95.2296 133.471C94.5306 134.387 93.639 135.14 92.6171 135.677C91.5953 136.213 90.468 136.521 89.3143 136.577L41.9291 138.903C39.3917 139.028 36.8956 138.229 34.9064 136.654C32.9173 135.08 31.571 132.838 31.1188 130.348L17.907 57.5788L16.9241 57.8586L14.3961 44.0662L15.4079 43.8142L11.72 23.5018C11.562 22.6317 11.5987 21.7377 11.8273 20.8834C12.0559 20.0291 12.4709 19.2356 13.0426 18.5594C13.6143 17.8832 14.3287 17.341 15.1349 16.9714C15.9411 16.6019 16.8192 16.414 17.7065 16.4213V16.4213Z" fill="#3F3D56"/>
<path d="M57.7325 18.6401H63.1131C64.6583 18.6401 66.157 19.1666 67.3605 20.1323C68.5639 21.0979 69.3997 22.4445 69.7291 23.9486L92.0848 126.034C92.2135 126.621 92.2134 127.23 92.0844 127.817C91.9555 128.405 91.7007 128.958 91.3376 129.439C90.9745 129.919 90.5115 130.316 89.9803 130.602C89.4491 130.888 88.8622 131.057 88.2597 131.096L41.0278 134.18C39.6953 134.267 38.3773 133.862 37.3253 133.043C36.2733 132.224 35.561 131.047 35.3243 129.738L16.248 24.2228C16.1245 23.5399 16.153 22.8383 16.3314 22.1675C16.5098 21.4967 16.8338 20.8732 17.2805 20.3408C17.7273 19.8084 18.2858 19.3801 18.9168 19.0863C19.5478 18.7924 20.2358 18.6401 20.9323 18.6401H26.0366C26.5306 18.6401 27.0109 18.8024 27.403 19.1018C27.7951 19.4012 28.0772 19.821 28.2057 20.2963C28.3191 20.7159 28.5681 21.0865 28.9143 21.3509C29.2604 21.6152 29.6844 21.7584 30.1206 21.7584H54.3526C55.2067 21.7584 56.0292 21.4373 56.6558 20.8591C57.2825 20.281 57.667 19.4885 57.7325 18.6401L57.7325 18.6401Z" fill="white"/>
<path d="M19.9231 35.9974H71.163L76.6217 60.5027L24.7123 61.457L19.9231 35.9974Z" fill="#50C2C9"/>
<path d="M68.5814 82.4046H80.6447L81.0278 84.7054H68.9646L68.5814 82.4046Z" fill="#50C2C9"/>
<path d="M78.3964 70.6672L27.2354 71.7466L27.2405 71.9865L78.4015 70.907L78.3964 70.6672Z" fill="#2F2E41"/>
<path d="M79.961 77.7433L27.8369 78.9426L27.8425 79.1825L79.9666 77.9832L79.961 77.7433Z" fill="#2F2E41"/>
<path d="M73.5621 107.026H85.6254L86.0085 109.326H73.9453L73.5621 107.026Z" fill="#50C2C9"/>
<path d="M83.3772 95.2882L32.2161 96.3676L32.2212 96.6074L83.3823 95.528L83.3772 95.2882Z" fill="#2F2E41"/>
<path d="M84.9418 102.364L32.8176 103.564L32.8232 103.803L84.9473 102.604L84.9418 102.364Z" fill="#2F2E41"/>
<path d="M117.922 139.558L115.639 139.558L114.553 130.787L117.922 130.787L117.922 139.558Z" fill="#A0616A"/>
<path d="M118.504 141.763L111.144 141.762V141.67C111.144 140.913 111.446 140.187 111.983 139.652C112.52 139.116 113.249 138.816 114.009 138.816H114.009L118.504 138.816L118.504 141.763Z" fill="#2F2E41"/>
<path d="M146.277 138.069L144.055 138.59L140.98 130.301L144.259 129.531L146.277 138.069Z" fill="#A0616A"/>
<path d="M147.351 140.082L140.187 141.763L140.165 141.672C139.991 140.936 140.118 140.16 140.518 139.516C140.918 138.873 141.558 138.414 142.297 138.24L142.297 138.24L146.673 137.214L147.351 140.082Z" fill="#2F2E41"/>
<path d="M117.455 102.562C117.46 102.105 117.596 91.3173 120.564 87.2384L120.607 87.1782L130.951 88.5999L130.719 90.864C131.174 91.3049 134.753 95.0304 135.786 103.853L146.764 133.229L141.661 133.691L126.553 101.623L118.558 136.481H113.498L117.455 102.562Z" fill="#2F2E41"/>
<path d="M119.352 87.6363L120.363 82.3479C120.165 82.0941 119.288 80.875 119.483 79.4461C119.611 78.5139 120.169 77.6964 121.144 77.0158L123.764 70.9235L123.8 70.9029C123.976 70.7992 128.149 68.3954 130.423 70.6634C130.48 70.7073 136.081 75.1368 133.832 81.1121L131.055 89.4118L119.352 87.6363Z" fill="#CCCCCC"/>
<path d="M115.834 94.7911C116.107 94.76 116.369 94.6698 116.603 94.5268C116.837 94.3837 117.036 94.1913 117.188 93.9631C117.339 93.735 117.438 93.4765 117.478 93.2061C117.518 92.9356 117.498 92.6597 117.419 92.3977L122.831 88.513L119.592 87.2852L114.949 91.1625C114.516 91.3232 114.157 91.6364 113.941 92.043C113.724 92.4496 113.665 92.9212 113.774 93.3685C113.883 93.8158 114.153 94.2076 114.533 94.4698C114.912 94.732 115.375 94.8463 115.834 94.7911Z" fill="#A0616A"/>
<path d="M116.829 88.5067L125.091 82.0211L122.635 73.6598C122.519 73.2639 122.486 72.8484 122.539 72.4394C122.591 72.0303 122.727 71.6364 122.939 71.2821C123.135 70.9481 123.399 70.6586 123.714 70.4321C124.029 70.2057 124.388 70.0472 124.768 69.967C126.182 69.6688 127.467 70.4578 128.584 72.3126L128.592 72.3294C128.777 72.7795 133.081 83.3804 129.795 85.6474C126.58 87.8649 119.124 91.093 119.049 91.1256L118.962 91.1632L116.829 88.5067Z" fill="#CCCCCC"/>
<path d="M127.81 68.4584C130.574 68.4584 132.815 66.2258 132.815 63.4717C132.815 60.7176 130.574 58.485 127.81 58.485C125.046 58.485 122.805 60.7176 122.805 63.4717C122.805 66.2258 125.046 68.4584 127.81 68.4584Z" fill="#A0616A"/>
<path d="M135.657 61.6915C138.102 61.6915 140.085 59.7164 140.085 57.2799C140.085 54.8434 138.102 52.8683 135.657 52.8683C133.211 52.8683 131.229 54.8434 131.229 57.2799C131.229 59.7164 133.211 61.6915 135.657 61.6915Z" fill="#2F2E41"/>
<path d="M139.476 60.933C138.903 61.3457 138.239 61.6156 137.54 61.7203C136.84 61.8249 136.126 61.7611 135.457 61.5343C134.787 61.3075 134.182 60.9243 133.692 60.4166C133.201 59.909 132.84 59.2918 132.638 58.6165C132.715 59.2216 132.916 59.8044 133.23 60.328C133.544 60.8516 133.963 61.3047 134.462 61.6587C134.96 62.0127 135.527 62.2599 136.126 62.3846C136.725 62.5094 137.344 62.509 137.943 62.3835C138.542 62.2581 139.108 62.0102 139.606 61.6557C140.104 61.3011 140.523 60.8475 140.836 60.3235C141.15 59.7995 141.35 59.2165 141.426 58.6113C141.502 58.0061 141.451 57.3919 141.276 56.8074C141.375 57.5927 141.26 58.3901 140.944 59.116C140.627 59.8419 140.12 60.4695 139.476 60.933Z" fill="#2F2E41"/>
<path d="M122.002 60.9379C122.775 59.5591 123.07 58.9831 124.067 58.1447C124.948 57.4032 126.033 57.1854 126.907 57.888C127.942 57.4427 129.093 57.3417 130.189 57.6001C131.286 57.8585 132.27 58.4624 132.994 59.3221C133.719 60.1819 134.146 61.2516 134.212 62.3724C134.278 63.4932 133.979 64.6052 133.36 65.5434C132.741 66.4816 131.835 67.1958 130.776 67.58C129.717 67.9642 128.562 67.9978 127.483 67.6759C126.403 67.354 125.457 66.6938 124.784 65.7932C124.111 64.8927 123.747 63.7999 123.747 62.6772C123.748 62.48 123.76 62.283 123.783 62.0872C123.023 61.9809 122.762 61.0442 122.002 60.9379Z" fill="#2F2E41"/>
<path d="M167.808 142H94.821C94.7702 142 94.7214 141.98 94.6855 141.944C94.6496 141.908 94.6294 141.86 94.6294 141.809C94.6294 141.759 94.6496 141.71 94.6855 141.674C94.7214 141.638 94.7702 141.618 94.821 141.618H167.808C167.859 141.618 167.908 141.638 167.944 141.674C167.98 141.71 168 141.759 168 141.809C168 141.86 167.98 141.908 167.944 141.944C167.908 141.98 167.859 142 167.808 142Z" fill="#3F3D56"/>
</g>
<defs>
<clipPath id="clip0_203_96">
<rect width="168" height="142" fill="white"/>
</clipPath>
</defs>
</svg>
